Coordinates
version=1
nRows=17
nColumns=40
inDegrees=yes

Units are S.I. units (second, meters, Newtons, ...)
Angles are in degrees.

endheader
time	pelvis_tilt	pelvis_list	pelvis_rotation	pelvis_tx	pelvis_ty	pelvis_tz	hip_flexion_r	hip_adduction_r	hip_rotation_r	knee_angle_r	knee_angle_r_beta	ankle_angle_r	subtalar_angle_r	mtp_angle_r	hip_flexion_l	hip_adduction_l	hip_rotation_l	knee_angle_l	knee_angle_l_beta	ankle_angle_l	subtalar_angle_l	mtp_angle_l	lumbar_extension	lumbar_bending	lumbar_rotation	arm_flex_r	arm_add_r	arm_rot_r	elbow_flex_r	pro_sup_r	wrist_flex_r	wrist_dev_r	arm_flex_l	arm_add_l	arm_rot_l	elbow_flex_l	pro_sup_l	wrist_flex_l	wrist_dev_l
     40.95142857	     -2.60134406	     -5.98881836	      6.15838262	      1.07364051	      0.93266677	      0.50256324	      5.36328528	      5.59331306	    -18.90042899	     12.32031534	     12.32031534	     11.89348425	      2.69731541	     -3.30817178	     36.16462803	    -13.35425756	      0.04625871	     43.48269388	     43.48269388	      8.09605189	    -17.32322167	     15.73656585	    -10.39231065	      7.60262764	      4.50338162	     28.00297283	    -17.30690513	     -7.78269878	     53.29479490	     45.07873411	      0.00000000	      0.00000000	      1.44382704	     -6.35941534	      2.22064827	     26.65691113	     45.78688509	      0.00000000	      0.00000000
     40.96285714	     -2.74050319	     -6.15543954	      6.14822185	      1.07216841	      0.93215513	      0.50261372	      4.43628848	      5.88503333	    -19.68387035	     11.30150290	     11.30150290	     11.97413786	      4.49505409	     -3.96053982	     36.21749148	    -13.23074623	     -0.21123063	     39.36601797	     39.36601797	      6.94891215	    -16.28567343	     12.86161730	    -10.32139863	      7.75775773	      5.13303866	     29.20903750	    -18.14168237	     -7.20325925	     57.31465970	     44.95490082	      0.00000000	      0.00000000	      0.32318031	     -6.29481697	      3.17301136	     24.60311802	     45.59912684	      0.00000000	      0.00000000
     40.97428571	     -2.93754791	     -6.27434749	      6.08531808	      1.07073028	      0.93151404	      0.50273906	      3.57923203	      6.22466953	    -19.71370228	     10.26834667	     10.26834667	     12.14536990	      5.20596819	     -3.97405442	     36.29473048	    -13.05698834	     -0.40718181	     35.41018518	     35.41018518	      7.02781545	    -14.51954864	     12.93564043	    -10.14717469	      7.79744774	      5.18682567	     31.42835615	    -17.98804672	     -7.34990041	     59.08941129	     44.91646069	      0.00000000	      0.00000000	     -1.49822328	     -6.41615275	      3.35992021	     23.79660392	     45.53042869	      0.00000000	      0.00000000
     40.98571429	     -3.06910716	     -6.52132861	      6.06440175	      1.06947019	      0.93066334	      0.50266492	      2.54385451	      6.70777401	    -20.04246892	      9.03128421	      9.03128421	     12.25242689	      6.45834344	     -4.08752858	     36.30825229	    -13.04140959	     -0.61877921	     31.58816451	     31.58816451	      7.13076706	    -12.28212030	     12.64714448	    -10.06528902	      8.05212729	      5.09062587	     33.63163189	    -17.74968255	     -7.36885631	     61.48315692	     44.85540374	      0.00000000	      0.00000000	     -3.41454949	     -6.47201349	      3.65434449	     23.23259763	     45.43406002	      0.00000000	      0.00000000
     40.99714286	     -3.32890390	     -6.63761337	      5.95114415	      1.06824155	      0.92956905	      0.50252929	      1.77303977	      6.99186728	    -20.14512412	      8.08470722	      8.08470722	     12.44345972	      7.36877077	     -4.21331154	     36.26349971	    -12.89767352	     -0.97075277	     27.74259982	     27.74259982	      7.20527244	    -10.06756837	     12.76702381	     -9.81469396	      8.10740667	      5.25852222	     35.57879426	    -17.69586662	     -7.37360205	     63.45009982	     44.80442228	      0.00000000	      0.00000000	     -5.25012865	     -6.58304438	      3.84191845	     22.81101894	     45.35828805	      0.00000000	      0.00000000
     41.00857143	     -3.50959668	     -6.89974415	      5.87962377	      1.06727375	      0.92817790	      0.50224924	      0.82726646	      7.44715789	    -20.54829168	      6.97340451	      6.97340451	     12.54076284	      8.79289813	     -4.61677342	     36.25356145	    -12.93130515	     -1.35567917	     24.32793527	     24.32793527	      7.08201951	     -7.72425026	     12.11931980	     -9.70681271	      8.36367945	      5.56120754	     36.92449113	    -18.03394266	     -7.07003240	     67.38233690	     44.72561647	      0.00000000	      0.00000000	     -7.50801846	     -6.91305385	      5.38634184	     23.94268972	     44.99356750	      0.00000000	      0.00000000
     41.02000000	     -3.81867599	     -7.15420424	      5.75568726	      1.06610830	      0.92654360	      0.50185468	      0.28910106	      7.81739203	    -20.45058324	      6.36258819	      6.36258819	     12.82973711	      9.24622786	     -4.71606069	     36.33666562	    -12.87894065	     -1.63437702	     21.18339926	     21.18339926	      7.08715470	     -6.02794914	     12.69308178	     -9.36076761	      8.63588162	      5.86318968	     39.08784503	    -18.05963274	     -7.19761039	     68.75831341	     44.69811998	      0.00000000	      0.00000000	     -9.04913027	     -6.84043628	      5.54520479	     23.46722710	     44.93655046	      0.00000000	      0.00000000
     41.03142857	     -3.84868607	     -7.20949541	      5.61823002	      1.06547834	      0.92531735	      0.50139508	     -0.80020566	      8.05664504	    -20.35635843	      5.38377701	      5.38377701	     13.05499843	     10.05981799	     -4.74171036	     36.03162753	    -12.76697504	     -2.42795481	     18.49807012	     18.49807012	      7.27852100	     -4.21883202	     13.36427132	     -9.36023669	      8.62229577	      5.58691811	     40.97307846	    -17.41693916	     -7.05709821	     71.00652407	     44.63474791	      0.00000000	      0.00000000	    -11.07054269	     -6.96542072	      5.80620148	     23.15703848	     44.84665310	      0.00000000	      0.00000000
     41.04285714	     -4.03158444	     -7.46239152	      5.51582688	      1.06473231	      0.92356187	      0.50076314	     -1.57457923	      8.43516609	    -20.38433355	      4.64276673	      4.64276673	     13.33355106	     10.86609110	     -4.75020665	     36.26752362	    -12.81685048	     -3.18017371	     16.84676864	     16.84676864	      7.69413252	     -2.71949233	     14.43854701	     -9.24064028	      8.87578094	      5.61587409	     42.56179791	    -17.34529588	     -6.71688425	     74.08362814	     44.56206685	      0.00000000	      0.00000000	    -13.28027453	     -7.13964970	      6.56940642	     24.32950519	     44.65078402	      0.00000000	      0.00000000
     41.05428571	     -4.29098270	     -7.58491093	      5.35449622	      1.06392065	      0.92175590	      0.49993505	     -2.02623765	      8.56687482	    -20.13120325	      4.40683372	      4.40683372	     13.76830242	     11.01340361	     -4.84475018	     36.41867790	    -12.66395341	     -3.79749212	     15.45628780	     15.45628780	      7.57619052	     -2.28959711	     14.83876394	     -8.96011049	      8.98208762	      5.88116917	     44.45543036	    -17.32497962	     -6.78158493	     75.38054934	     44.53575082	      0.00000000	      0.00000000	    -14.68935715	     -7.05260642	      6.74659153	     24.06197938	     44.59479694	      0.00000000	      0.00000000
     41.06571429	     -4.39853761	     -7.61279288	      5.21771957	      1.06332558	      0.92020179	      0.49888872	     -2.66939840	      8.59782991	    -19.88136672	      4.15788551	      4.15788551	     14.22125703	     11.20794675	     -4.84993425	     36.37326632	    -12.43631732	     -4.49458460	     14.61638584	     14.61638584	      7.46286930	     -2.21641222	     15.20813349	     -8.88113119	      8.99517722	      5.68362741	     46.12950964	    -16.77428715	     -6.58079258	     77.40965909	     44.47829374	      0.00000000	      0.00000000	    -16.37385238	     -6.99967343	      7.00615315	     23.93552568	     44.51712165	      0.00000000	      0.00000000
     41.07714286	     -4.59958193	     -7.68035522	      5.08101086	      1.06277272	      0.91843818	      0.49770714	     -3.10409770	      8.61020624	    -19.63267097	      4.13677832	      4.13677832	     14.85952650	     11.27906113	     -4.45441493	     36.56446363	    -12.22079998	     -4.95354382	     14.52506470	     14.52506470	      7.16990570	     -2.80649823	     15.21681842	     -8.73344812	      9.01395166	      5.83581269	     47.20761366	    -16.94162261	     -6.13577032	     80.28853061	     44.42377036	      0.00000000	      0.00000000	    -18.32855885	     -7.24470616	      7.95861601	     25.39997546	     44.32133878	      0.00000000	      0.00000000
     41.08857143	     -4.75879659	     -7.67659395	      4.92488005	      1.06230232	      0.91678767	      0.49629457	     -3.50540906	      8.49725037	    -19.39617200	      4.27719613	      4.27719613	     15.39185461	     11.26321438	     -4.50381757	     36.65990284	    -11.97040495	     -5.46460117	     14.89423476	     14.89423476	      6.83168911	     -3.53185348	     15.14214374	     -8.56165792	      8.99886516	      5.86885852	     48.76641363	    -16.65316394	     -6.12790001	     81.52379891	     44.39794228	      0.00000000	      0.00000000	    -19.51488570	     -7.09306849	      8.19851176	     25.06469166	     44.26713373	      0.00000000	      0.00000000
     41.10000000	     -4.98150780	     -7.62282817	      4.70967191	      1.06203166	      0.91518957	      0.49478585	     -3.87623792	      8.31166064	    -19.12695801	      4.36822801	      4.36822801	     15.83600302	     11.30428807	     -4.55871513	     36.64262203	    -11.70890261	     -5.99004396	     15.43004707	     15.43004707	      6.37673962	     -4.22902738	     15.13343301	     -8.23599477	      8.86611878	      6.07623750	     49.94251656	    -16.69620051	     -6.18822724	     82.30721151	     44.38220176	      0.00000000	      0.00000000	    -20.67672570	     -7.02487923	      8.27178678	     24.71660193	     44.23688597	      0.00000000	      0.00000000
     41.11142857	     -5.06330139	     -7.64321405	      4.60921183	      1.06186608	      0.91350562	      0.49293129	     -4.15444651	      8.12899655	    -18.93361160	      4.96776255	      4.96776255	     16.56545879	     11.03581439	     -4.47494301	     36.71378914	    -11.41342965	     -5.76415822	     16.64921399	     16.64921399	      5.64230093	     -5.82144452	     14.56582916	     -8.20304215	      8.92350780	      5.64196011	     51.19641025	    -15.93581875	     -5.79825118	     84.49237946	     44.31442666	      0.00000000	      0.00000000	    -21.79032437	     -6.71153501	      8.52068821	     24.64453940	     44.18273788	      0.00000000	      0.00000000
     41.12285714	     -5.30134971	     -7.55813829	      4.43666027	      1.06193354	      0.91187431	      0.49087745	     -4.31575622	      7.79603792	    -18.71895523	      5.51147953	      5.51147953	     17.27683536	     10.88730339	     -4.09150312	     36.59398897	    -10.98061433	     -5.46968836	     17.51134842	     17.51134842	      4.44886795	     -7.41651339	     13.63277993	     -7.90359343	      8.84151941	      5.52985621	     51.91083689	    -15.78797481	     -5.42489418	     86.58583609	     44.25820515	      0.00000000	      0.00000000	    -22.87879974	     -6.53374481	      8.78765947	     24.85267041	     44.13309378	      0.00000000	      0.00000000
     41.13428571	     -5.36622277	     -7.42753242	      4.22889767	      1.06232600	      0.91058294	      0.48874868	     -4.67654978	      7.39202629	    -18.65313075	      6.11824612	      6.11824612	     18.24605883	     11.07926814	     -2.85590533	     36.10791672	    -10.53952612	     -5.11219001	     18.20161008	     18.20161008	      2.55808460	     -9.09722443	     11.05495177	     -7.82348164	      8.66767307	      5.96669514	     52.20560015	    -16.37057103	     -5.22880726	     89.01021578	     44.24548612	      0.00000000	      0.00000000	    -23.66204745	     -6.70395381	      9.52244462	     25.44354663	     44.06216167	      0.00000000	      0.00000000
